<mxfile host="Electron" modified="2024-05-02T05:25:08.030Z" agent="Mozilla/5.0 (X11; Linux x86_64) AppleWebKit/537.36 (KHTML, like Gecko) draw.io/21.6.1 Chrome/112.0.5615.204 Electron/24.6.1 Safari/537.36" etag="mUJwxH3-9eOk6np-tAAs" version="21.6.1" type="device">
  <diagram name="Page-1" id="0cv2G-S0-AO7ha8Dd1sW">
    <mxGraphModel dx="574" dy="334" grid="1" gridSize="10" guides="1" tooltips="1" connect="1" arrows="1" fold="1" page="1" pageScale="1" pageWidth="827" pageHeight="1169" math="0" shadow="0">
      <root>
        <mxCell id="0" />
        <mxCell id="1" parent="0" />
        <mxCell id="WnI3qK_31gTjP33_6Msq-50" value="A" style="rounded=0;whiteSpace=wrap;html=1;strokeColor=default;fontFamily=Times New Roman;fontSize=12;fontColor=default;fillColor=default;" parent="1" vertex="1">
          <mxGeometry x="160" y="280" width="80" height="80" as="geometry" />
        </mxCell>
        <mxCell id="WnI3qK_31gTjP33_6Msq-51" value="B" style="rounded=0;whiteSpace=wrap;html=1;strokeColor=default;fontFamily=Times New Roman;fontSize=12;fontColor=default;fillColor=default;" parent="1" vertex="1">
          <mxGeometry x="560" y="280" width="80" height="80" as="geometry" />
        </mxCell>
        <mxCell id="WnI3qK_31gTjP33_6Msq-53" value="RX" style="rounded=0;whiteSpace=wrap;html=1;strokeColor=default;fontFamily=Times New Roman;fontSize=12;fontColor=default;fillColor=default;" parent="1" vertex="1">
          <mxGeometry x="220" y="290" width="20" height="20" as="geometry" />
        </mxCell>
        <mxCell id="WnI3qK_31gTjP33_6Msq-54" value="TX" style="rounded=0;whiteSpace=wrap;html=1;strokeColor=default;fontFamily=Times New Roman;fontSize=12;fontColor=default;fillColor=default;" parent="1" vertex="1">
          <mxGeometry x="220" y="330" width="20" height="20" as="geometry" />
        </mxCell>
        <mxCell id="WnI3qK_31gTjP33_6Msq-55" value="TX" style="rounded=0;whiteSpace=wrap;html=1;strokeColor=default;fontFamily=Times New Roman;fontSize=12;fontColor=default;fillColor=default;" parent="1" vertex="1">
          <mxGeometry x="560" y="290" width="20" height="20" as="geometry" />
        </mxCell>
        <mxCell id="WnI3qK_31gTjP33_6Msq-56" value="RX" style="rounded=0;whiteSpace=wrap;html=1;strokeColor=default;fontFamily=Times New Roman;fontSize=12;fontColor=default;fillColor=default;" parent="1" vertex="1">
          <mxGeometry x="560" y="330" width="20" height="20" as="geometry" />
        </mxCell>
        <mxCell id="WnI3qK_31gTjP33_6Msq-63" value="" style="pointerEvents=1;verticalLabelPosition=bottom;shadow=0;dashed=0;align=center;html=1;verticalAlign=top;shape=mxgraph.electrical.electro-mechanical.twoWayContact2;elSwitchState=1;rounded=0;strokeColor=default;fontFamily=Times New Roman;fontSize=12;fontColor=default;fillColor=default;flipV=0;flipH=1;" parent="1" vertex="1">
          <mxGeometry x="254" y="300" width="106" height="40" as="geometry" />
        </mxCell>
        <mxCell id="WnI3qK_31gTjP33_6Msq-65" value="" style="pointerEvents=1;verticalLabelPosition=bottom;shadow=0;dashed=0;align=center;html=1;verticalAlign=top;shape=mxgraph.electrical.electro-mechanical.twoWayContact2;elSwitchState=1;rounded=0;strokeColor=default;fontFamily=Times New Roman;fontSize=12;fontColor=default;fillColor=default;flipV=0;flipH=0;" parent="1" vertex="1">
          <mxGeometry x="440" y="300" width="106" height="40" as="geometry" />
        </mxCell>
        <mxCell id="WnI3qK_31gTjP33_6Msq-66" value="" style="endArrow=classic;html=1;rounded=0;fontFamily=Times New Roman;fontSize=12;fontColor=default;fillColor=#f8cecc;strokeColor=#b85450;" parent="1" edge="1">
          <mxGeometry width="50" height="50" relative="1" as="geometry">
            <mxPoint x="560" y="299.52" as="sourcePoint" />
            <mxPoint x="520" y="299.52" as="targetPoint" />
          </mxGeometry>
        </mxCell>
        <mxCell id="WnI3qK_31gTjP33_6Msq-67" value="" style="endArrow=classic;html=1;rounded=0;fontFamily=Times New Roman;fontSize=12;fontColor=default;fillColor=#dae8fc;strokeColor=#6c8ebf;" parent="1" edge="1">
          <mxGeometry width="50" height="50" relative="1" as="geometry">
            <mxPoint x="240" y="339.52" as="sourcePoint" />
            <mxPoint x="280" y="339.52" as="targetPoint" />
          </mxGeometry>
        </mxCell>
        <mxCell id="WnI3qK_31gTjP33_6Msq-68" value="" style="endArrow=classic;html=1;rounded=0;fontFamily=Times New Roman;fontSize=12;fontColor=default;fillColor=#dae8fc;strokeColor=#6c8ebf;" parent="1" edge="1">
          <mxGeometry width="50" height="50" relative="1" as="geometry">
            <mxPoint x="520" y="340" as="sourcePoint" />
            <mxPoint x="560" y="340" as="targetPoint" />
          </mxGeometry>
        </mxCell>
        <mxCell id="WnI3qK_31gTjP33_6Msq-69" value="" style="endArrow=classic;html=1;rounded=0;fontFamily=Times New Roman;fontSize=12;fontColor=default;entryX=0;entryY=0.5;entryDx=0;entryDy=0;entryPerimeter=0;exitX=0;exitY=0.5;exitDx=0;exitDy=0;fillColor=#f8cecc;strokeColor=#b85450;" parent="1" source="WnI3qK_31gTjP33_6Msq-65" target="WnI3qK_31gTjP33_6Msq-63" edge="1">
          <mxGeometry width="50" height="50" relative="1" as="geometry">
            <mxPoint x="350" y="390" as="sourcePoint" />
            <mxPoint x="400" y="340" as="targetPoint" />
          </mxGeometry>
        </mxCell>
        <mxCell id="WnI3qK_31gTjP33_6Msq-70" value="" style="endArrow=classic;html=1;rounded=0;fontFamily=Times New Roman;fontSize=12;fontColor=default;exitX=0;exitY=0.5;exitDx=0;exitDy=0;dashed=1;fillColor=#dae8fc;strokeColor=#6c8ebf;" parent="1" edge="1">
          <mxGeometry width="50" height="50" relative="1" as="geometry">
            <mxPoint x="360" y="330" as="sourcePoint" />
            <mxPoint x="440" y="330.48" as="targetPoint" />
          </mxGeometry>
        </mxCell>
        <mxCell id="WnI3qK_31gTjP33_6Msq-62" value="" style="endArrow=classic;html=1;rounded=0;fontFamily=Times New Roman;fontSize=12;fontColor=default;fillColor=#f8cecc;strokeColor=#b85450;" parent="1" target="WnI3qK_31gTjP33_6Msq-53" edge="1">
          <mxGeometry width="50" height="50" relative="1" as="geometry">
            <mxPoint x="280" y="300" as="sourcePoint" />
            <mxPoint x="330" y="270" as="targetPoint" />
          </mxGeometry>
        </mxCell>
      </root>
    </mxGraphModel>
  </diagram>
</mxfile>
